<svg width="295" height="96" viewBox="0 0 295 96" fill="none" xmlns="http://www.w3.org/2000/svg">
<g filter="url(#filter0_d_1_3)">
<path d="M66.4708 13.3918L66.4712 13.391C67.0652 12.0379 68.7109 11.3958 70.123 11.9864C70.1231 11.9864 70.1233 11.9865 70.1234 11.9865L73.3739 13.3555C73.3743 13.3557 73.3747 13.3558 73.3752 13.356C74.783 13.9567 75.4213 15.5474 74.8313 16.8807L74.831 16.8812L68.7628 30.6344L68.7431 30.6728L68.7366 30.6854L68.7309 30.6983L67.2747 33.9895L67.2746 33.9894L67.2712 33.9974C67.1956 34.1768 67.0981 34.3462 66.978 34.5061L66.977 34.5075C66.2344 35.5027 64.8401 35.9072 63.6375 35.3963L63.6362 35.3958L60.0809 33.8975L60.0806 33.8973L17.7849 16.1099L17.5606 16.0156L17.348 16.1339C16.1104 16.8225 14.6722 17.2105 13.1437 17.2105C8.39743 17.2105 4.56537 13.4409 4.56537 8.8488C4.56537 4.25813 8.40912 0.499908 13.1437 0.499908C17.516 0.499908 21.1286 3.71221 21.6473 7.8229L21.6835 8.10937L21.9496 8.22125L60.9787 24.6257L61.4316 24.816L61.6299 24.3665L66.4708 13.3918ZM7.73721 8.84882C7.73721 11.4441 9.63746 13.5852 12.1278 14.0518C12.468 14.1235 12.8033 14.151 13.1437 14.151C16.1109 14.151 18.5502 11.7871 18.5502 8.86163C18.5502 7.51355 18.0267 6.28254 17.1894 5.35204C16.2043 4.24937 14.7578 3.5594 13.1437 3.5594C10.1765 3.5594 7.73721 5.92334 7.73721 8.84882Z" fill="#7B31FC" stroke="black"/>
<path d="M37.7487 10.6508L37.7469 10.65C37.2014 10.4231 36.9592 9.81045 37.1862 9.28932C37.1863 9.28902 37.1865 9.28872 37.1866 9.28843L39.9407 3.05389L39.9407 3.05389L39.9416 3.05193C40.1688 2.53151 40.8043 2.2743 41.3633 2.5064C41.3636 2.50651 41.3638 2.50661 41.3641 2.50672L62.0117 11.1884L62.0134 11.1891C62.5589 11.4161 62.8011 12.0287 62.5741 12.5499C62.574 12.5502 62.5739 12.5505 62.5737 12.5508L59.8196 18.7853L59.8188 18.7873C59.5915 19.3077 58.956 19.5649 58.3969 19.3328C58.3967 19.3327 58.3965 19.3326 58.3962 19.3325L37.7487 10.6508Z" fill="#33364D" stroke="black"/>
<path d="M81.3304 54.497L81.3317 54.4939L90.1344 34.2992C90.3629 33.7759 90.9993 33.5237 91.5411 33.7529L91.5443 33.7542L97.9328 36.4049C97.9329 36.4049 97.933 36.405 97.9332 36.405C98.4817 36.6335 98.7181 37.2469 98.4943 37.7509L98.493 37.754L89.6902 57.9486C89.4617 58.472 88.8254 58.7242 88.2836 58.495L88.2804 58.4937L81.8946 55.8442C81.8942 55.844 81.8937 55.8438 81.8933 55.8436C81.3508 55.6133 81.1088 54.996 81.3304 54.497ZM91.7359 33.2924L91.7359 33.2924L91.7359 33.2924Z" fill="#7B31FC" stroke="black"/>
<path d="M45.3506 76.9729L45.3529 76.9738L66.0786 85.476C66.079 85.4762 66.0794 85.4763 66.0797 85.4765C66.6343 85.7079 66.8755 86.3132 66.6521 86.8248L66.651 86.8273L63.9627 93.0741C63.9625 93.0744 63.9624 93.0747 63.9623 93.075C63.7307 93.6039 63.1031 93.8609 62.5533 93.6322L62.551 93.6312L41.8252 85.129C41.8249 85.1289 41.8246 85.1287 41.8243 85.1286C41.2696 84.8972 41.0283 84.2919 41.2518 83.7802L41.2528 83.7778L43.9422 77.5285L43.9422 77.5285L43.944 77.5244C44.1614 77.0064 44.7954 76.7419 45.3506 76.9729Z" fill="#33364D" stroke="black"/>
<path d="M22.1964 42.0343L22.1946 42.0388L13.5754 62.3106L13.5745 62.3127C13.3572 62.8302 12.7211 63.0977 12.1623 62.8747C12.1621 62.8746 12.1618 62.8745 12.1615 62.8744L5.74839 60.2756L5.74633 60.2748C5.20299 60.0574 4.95062 59.4434 5.16847 58.923C5.16861 58.9227 5.16875 58.9224 5.16889 58.922L13.7872 38.6652L13.7881 38.663C14.0054 38.1455 14.6414 37.878 15.2001 38.101C15.2004 38.1011 15.2007 38.1012 15.201 38.1013L21.6142 40.7001L21.6142 40.7001L21.6188 40.7019C22.1782 40.9221 22.4201 41.5223 22.1964 42.0343Z" fill="#7B31FC" stroke="black"/>
<path d="M64.9498 61.7939L64.79 61.8758L64.9498 61.7939ZM64.9498 61.7939L64.7901 61.8757M64.9498 61.7939L64.7901 61.8757M64.7901 61.8757L64.5421 62.0028M64.7901 61.8757L64.5421 62.0028M64.5421 62.0028L64.5102 62.0191L64.5421 62.0028ZM84.3716 14.824L84.4812 14.5725L84.328 14.345C83.4503 13.0418 82.9439 11.4866 82.9439 9.80927C82.9439 5.2186 86.7877 1.46037 91.5223 1.46037C96.268 1.46037 100.102 5.21712 100.14 9.81139C100.139 13.8846 97.1367 17.2982 93.1511 18.0254L92.889 18.0732L92.7825 18.3175L75.9639 56.9018L75.7605 57.3684L76.2307 57.5634L87.4986 62.237C87.4986 62.237 87.4987 62.2371 87.4987 62.2371C88.9051 62.8255 89.5565 64.4159 88.9654 65.7623L88.9649 65.7634L87.5743 68.9521L87.5734 68.9541C86.9896 70.3091 85.3428 70.9698 83.9357 70.3811L83.9344 70.3806L69.8052 64.5154L69.8019 64.5141L69.6488 64.4519L69.6445 64.4501L66.3691 63.0816L66.3691 63.0816L66.3628 63.079C66.1779 63.0047 66.0038 62.9093 65.8399 62.7922C65.8391 62.7917 65.8384 62.7912 65.8377 62.7906L65.6846 62.6785L65.3892 63.082L65.6846 62.6785C65.6128 62.626 65.5457 62.5616 65.4498 62.468L65.4483 62.4666L65.4367 62.4552L65.4237 62.4426L65.4105 62.4296L65.3972 62.4167L65.3967 62.4161C65.3896 62.4069 65.3742 62.3867 65.3527 62.3628C65.3309 62.3335 65.2931 62.2833 65.2474 62.2338C65.2417 62.2248 65.2342 62.2133 65.2259 62.2015C65.212 62.1816 65.1914 62.1543 65.1636 62.1251C65.1608 62.1209 65.1576 62.1157 65.1518 62.1065L65.1507 62.1047L65.1505 62.1044C65.144 62.094 65.1327 62.0759 65.1199 62.0573L65.0919 62.0162L65.0892 62.0135L65.0761 61.9752L65.0627 61.9621V61.898L64.9573 61.7952C64.9566 61.7938 64.956 61.7925 64.9553 61.7911C64.9498 61.7804 64.9454 61.7707 64.9353 61.7477L64.9342 61.7452C64.9246 61.7233 64.9097 61.6893 64.8897 61.6503L64.8753 61.6222L64.8599 61.5997L64.8528 61.5719V61.5527L64.7992 61.448C64.7989 61.4472 64.7984 61.4459 64.7979 61.444C64.7967 61.4403 64.7951 61.435 64.7928 61.4268L64.7847 61.3956L64.7798 61.3766L64.7735 61.358C64.7606 61.3203 64.7532 61.2981 64.7454 61.2675L64.7315 61.2134L64.7197 61.1904C64.7192 61.1867 64.7185 61.1816 64.7176 61.1745L64.717 61.1701C64.7142 61.1477 64.7081 61.0992 64.6951 61.0461C64.6945 61.0415 64.6937 61.0349 64.6922 61.0213C64.6907 61.0083 64.6882 60.9859 64.6848 60.9626C64.684 60.9575 64.6832 60.9521 64.6823 60.9463V60.8988L64.6691 60.8604V60.7587L64.6536 60.7285C64.638 60.3483 64.7137 59.9507 64.8776 59.5661C64.8778 59.5656 64.878 59.5651 64.8783 59.5645L66.3855 56.0976L66.3856 56.0972L84.3716 14.824ZM64.9539 61.7918V61.7918ZM91.5223 15.0987C93.0766 15.0987 94.4791 14.466 95.4646 13.4337C96.3743 12.489 96.9419 11.2146 96.9419 9.80927C96.9419 6.88379 94.5026 4.51985 91.5354 4.51985C88.6637 4.51985 86.3011 6.70382 86.1309 9.47899C86.1157 9.59815 86.1157 9.7206 86.1158 9.79801L86.1158 9.80927C86.1158 12.7347 88.5551 15.0987 91.5223 15.0987Z" fill="#33364D" stroke="black"/>
<path d="M37.805 33.671L37.8079 33.6734C38.7159 34.4084 39.0685 35.6713 38.606 36.7921C38.6057 36.7929 38.6053 36.7937 38.605 36.7945L37.2449 39.9861C37.2445 39.9869 37.2442 39.9877 37.2438 39.9885C37.2036 40.0801 37.1753 40.1432 37.14 40.2035L37.1238 40.2311L37.1113 40.2605L19.7286 81.1755L19.6106 81.4533L19.8014 81.6872C20.9653 83.1134 21.6566 84.9109 21.6566 86.8648C21.6566 91.4687 17.8124 95.2265 13.0783 95.2265C8.33197 95.2265 4.49991 91.4569 4.49991 86.8648C4.49991 83.0797 7.0944 79.8603 10.6574 78.8424L10.8868 78.7769L10.9802 78.5573L27.5626 39.5504L27.7616 39.0824L27.2903 38.8914L15.9818 34.3068L15.9795 34.3059C14.5668 33.7413 13.9007 32.1531 14.4826 30.792L14.4828 30.7915L15.8472 27.59L15.8472 27.59L15.8483 27.5874C16.4212 26.2216 18.0553 25.5498 19.4754 26.1283L19.4765 26.1287L33.6582 31.8658L33.6744 31.8723L33.691 31.8777L33.7135 31.8851L37.1081 33.2615L37.108 33.2616L37.1176 33.2652C37.3636 33.3592 37.5928 33.4966 37.805 33.671ZM8.55718 83.9604L8.55468 83.9642C8.0068 84.7946 7.67176 85.7857 7.67176 86.8648C7.67176 89.7903 10.1111 92.1542 13.0783 92.1542C16.0455 92.1542 18.4848 89.7903 18.4848 86.8648C18.4848 86.6785 18.4703 86.4955 18.4576 86.3343L18.457 86.3261L18.4564 86.3186L18.4556 86.3112C18.165 83.6446 15.86 81.5754 13.0783 81.5754C11.1899 81.5754 9.52716 82.519 8.55718 83.9604Z" fill="#33364D" stroke="black"/>
<path d="M86.2545 79.8998L86.4768 79.991L86.6869 79.8744C87.9546 79.1707 89.4196 78.7591 90.9703 78.7591C95.7166 78.7591 99.5486 82.5287 99.5486 87.1208C99.5486 91.7247 95.7044 95.4825 90.9703 95.4825C86.6226 95.4825 83.0349 92.3189 82.4792 88.2442L82.4402 87.9585L82.1735 87.8491L42.8296 71.7136L42.375 71.5272L42.1806 71.9785L37.4316 83.0043C36.8478 84.3589 35.2128 85.0217 33.7901 84.4426C33.7899 84.4425 33.7897 84.4424 33.7895 84.4423L30.5245 83.0984L30.5241 83.0982C29.1236 82.5231 28.4661 80.9343 29.0489 79.5703C29.049 79.5701 29.049 79.5699 29.0491 79.5697L35.0178 65.6893L35.0178 65.6891L36.4346 62.3981L36.4347 62.3982L36.438 62.39C36.5649 62.0805 36.7583 61.8134 37.0003 61.5656C37.764 60.7999 38.9792 60.5246 40.0639 60.9604C40.0644 60.9606 40.0649 60.9609 40.0655 60.9611L43.6175 62.4196L43.6178 62.4197L86.2545 79.8998ZM85.5638 87.1208C85.5638 88.4422 86.0733 89.6591 86.8957 90.5889C87.8808 91.7061 89.3414 92.4102 90.9703 92.4102C93.9497 92.4102 96.3899 90.0471 96.3899 87.1208C96.3899 84.4649 94.3715 82.2686 91.7792 81.8881C91.4989 81.8451 91.2369 81.8314 90.9703 81.8314C88.0031 81.8314 85.5638 84.1953 85.5638 87.1208Z" fill="#7B31FC" stroke="black"/>
<path d="M192.438 44.7478L192.443 44.7596L192.449 44.7711C192.895 45.618 193.144 46.9265 193.144 48.7525V65.3087C193.144 66.7531 192.516 68.1649 191.177 69.552C187.089 73.7862 180.92 75.9465 172.573 75.9465C165.24 75.9465 158.87 73.1846 153.439 67.6307C148.013 62.0811 145.303 55.3964 145.303 47.5485C145.303 39.7039 148.06 33.1763 153.577 27.9305C159.104 22.6742 165.604 20.0535 173.099 20.0535C178.9 20.0535 184.392 21.9683 189.583 25.8248L189.584 25.8252C190.862 26.772 191.413 27.7557 191.413 28.7723C191.413 29.8499 190.904 31.1632 189.778 32.7303C188.817 34.0362 187.916 34.9906 187.08 35.6149C186.243 36.2395 185.5 36.5127 184.839 36.5127C184.468 36.5127 183.924 36.3742 183.182 36.0395C182.449 35.7092 181.564 35.2068 180.523 34.5249C178.322 33.084 175.715 32.3737 172.723 32.3737C168.78 32.3737 165.275 33.7663 162.228 36.5295C159.154 39.3171 157.624 42.9684 157.624 47.4356C157.624 51.905 159.179 55.7197 162.284 58.8502C165.376 61.9676 168.911 63.551 172.874 63.551C175.688 63.551 178.237 63.0904 180.513 62.1592L180.824 62.0321V61.6965V53.4936V52.9936H180.324H174.379C172.838 52.9936 171.856 52.7897 171.33 52.4658C170.793 52.1358 170.442 51.6573 170.272 50.9982C170.087 50.2792 169.987 49.2734 169.987 47.9624C169.987 46.6549 170.099 45.6399 170.307 44.8994C170.505 44.1975 170.844 43.7791 171.291 43.5556C172.099 43.1516 173.217 42.9311 174.68 42.9311H187.915C190.597 43.0319 191.966 43.7272 192.438 44.7478ZM238.152 74.6308L238.152 74.6307L238.145 74.6338C236.561 75.327 235.345 75.6454 234.47 75.6454C233.574 75.6454 232.885 75.4283 232.364 75.0324C231.777 74.5859 231.365 74.1457 231.106 73.7176C230.606 72.762 228.664 68.2556 225.261 60.1483L225.123 59.8199L224.768 59.8429L222.451 59.9923H212.985H212.485V60.4923V68.9962C212.485 70.1451 212.447 70.9842 212.376 71.5278C212.311 72.0242 212.101 72.6295 211.716 73.3515L211.713 73.3566C211.439 73.8847 210.9 74.3262 209.999 74.6382C209.094 74.9515 207.864 75.1187 206.287 75.1187C202.801 75.1187 201.082 74.1932 200.592 72.68L200.592 72.6799L200.588 72.6678C200.316 71.8977 200.165 70.6632 200.165 68.9209V27.1543C200.165 26.0053 200.202 25.1663 200.273 24.6226C200.338 24.1263 200.548 23.5209 200.933 22.799L200.934 22.799L200.936 22.7939C201.21 22.2658 201.749 21.8243 202.65 21.5123C203.555 21.199 204.785 21.0318 206.362 21.0318H222.617C226.902 21.0318 231.086 22.5872 235.18 25.7438C237.117 27.2451 238.728 29.2881 240.004 31.8898C241.271 34.4736 241.909 37.3572 241.909 40.5497C241.909 46.0959 240.074 50.6286 236.417 54.1889L236.173 54.4255L236.304 54.7389C237.409 57.4025 239.116 61.3435 241.423 66.5595C242.175 68.3652 242.511 69.5843 242.511 70.2755C242.511 71.8552 241.23 73.3403 238.152 74.6308ZM212.985 33.352L212.485 33.352V33.852V47.1722V47.6722H212.985H222.617C224.207 47.6722 225.765 47.0675 227.284 45.9149C228.89 44.6965 229.665 42.8771 229.665 40.5497C229.665 38.2221 228.89 36.393 227.289 35.1502C225.763 33.9663 224.153 33.352 222.467 33.352L212.985 33.352ZM260.471 33.352H259.971V33.852V41.4528V41.9528H260.471H275.296C276.496 41.9528 277.36 41.9906 277.903 42.0615C278.397 42.126 279 42.3352 279.719 42.7176C280.226 43.0133 280.653 43.5725 280.954 44.4876C281.257 45.4085 281.418 46.648 281.418 48.2257C281.418 51.696 280.476 53.4549 278.903 53.9967C278.176 54.2223 276.963 54.3482 275.221 54.3482H260.471H259.971V54.8482V69.0714C259.971 70.2727 259.933 71.1218 259.862 71.6378C259.798 72.1084 259.588 72.7016 259.202 73.4267L259.199 73.4319C258.925 73.9599 258.386 74.4015 257.485 74.7134C256.58 75.0267 255.35 75.1939 253.773 75.1939C250.294 75.1939 248.573 74.2478 248.079 72.6836L248.075 72.671L248.07 72.6587C247.803 71.9448 247.651 70.7416 247.651 68.9962V27.1543C247.651 24.6199 248.13 23.0601 248.929 22.2823C249.731 21.5012 251.358 21.0318 253.999 21.0318H283.649C284.798 21.0318 285.637 21.0696 286.181 21.1405C286.675 21.205 287.267 21.4144 287.961 21.7974C288.554 22.1246 288.998 22.6849 289.268 23.5421C289.547 24.4263 289.697 25.6482 289.697 27.2295C289.697 28.8109 289.547 30.0328 289.268 30.917C289 31.7674 288.55 32.3101 287.941 32.6146C287.218 32.9761 286.609 33.1777 286.106 33.2433C285.563 33.3142 284.699 33.352 283.499 33.352H260.471Z" fill="#C3C4C6" stroke="black"/>
</g>
<defs>
<filter id="filter0_d_1_3" x="-9.15527e-05" y="-9.15527e-05" width="294.197" height="103.983" filterUnits="userSpaceOnUse" color-interpolation-filters="sRGB">
<feFlood flood-opacity="0" result="BackgroundImageFix"/>
<feColorMatrix in="SourceAlpha" type="matrix" values="0 0 0 0 0 0 0 0 0 0 0 0 0 0 0 0 0 0 127 0" result="hardAlpha"/>
<feOffset dy="4"/>
<feGaussianBlur stdDeviation="2"/>
<feComposite in2="hardAlpha" operator="out"/>
<feColorMatrix type="matrix" values="0 0 0 0 0 0 0 0 0 0 0 0 0 0 0 0 0 0 0.25 0"/>
<feBlend mode="normal" in2="BackgroundImageFix" result="effect1_dropShadow_1_3"/>
<feBlend mode="normal" in="SourceGraphic" in2="effect1_dropShadow_1_3" result="shape"/>
</filter>
</defs>
</svg>
